<svg xmlns="http://www.w3.org/2000/svg" viewBox="0 0 45.13 34.01"><path d="M11.18 15.23h2.58V6.31H16v-2h-2.24v-.85a1.47 1.47 0 0 1 .29-1 1.29 1.29 0 0 1 1-.35 3.15 3.15 0 0 1 .56.05c.16 0 .3.07.41.11l.51-2a5.68 5.68 0 0 0-.77-.19A5.92 5.92 0 0 0 14.59 0a4 4 0 0 0-1.72.36 2.79 2.79 0 0 0-1.23 1.1 3.31 3.31 0 0 0-.46 1.83v1H9.57v2h1.61Zm7.6-.34a3.64 3.64 0 0 0 1.89.48 3.53 3.53 0 0 0 2.07-.58 3.33 3.33 0 0 0 1.26-1.5h.11v1.94h2.5V4.32H24v6.32a2.57 2.57 0 0 1-.36 1.36 2.26 2.26 0 0 1-.88.83 2.4 2.4 0 0 1-1.1.28 2 2 0 0 1-1.49-.62 2.29 2.29 0 0 1-.57-1.64V4.32H17v6.94a5 5 0 0 0 .46 2.23 3.31 3.31 0 0 0 1.32 1.4ZM28.2.68h2.57v14.55H28.2zm4.21 0h2.57v14.55h-2.57zM6.27 23.69l-1.86-.39a3.14 3.14 0 0 1-1.19-.49.93.93 0 0 1-.35-.81 1 1 0 0 1 .54-.9 2.45 2.45 0 0 1 1.34-.35 2.49 2.49 0 0 1 1 .19 1.89 1.89 0 0 1 .66.51 1.85 1.85 0 0 1 .34.67l2.35-.26a3.5 3.5 0 0 0-1.37-2.21 5 5 0 0 0-3-.82 6.11 6.11 0 0 0-2.31.41 3.61 3.61 0 0 0-1.56 1.18 2.73 2.73 0 0 0-.55 1.75 2.65 2.65 0 0 0 .74 2 4.43 4.43 0 0 0 2.32 1.11l1.86.39a2.5 2.5 0 0 1 1.12.47 1 1 0 0 1 .35.77 1.09 1.09 0 0 1-.55.93 2.62 2.62 0 0 1-1.48.38 2.52 2.52 0 0 1-1.44-.38 1.74 1.74 0 0 1-.72-1.11L0 26.94a3.37 3.37 0 0 0 1.46 2.35 5.58 5.58 0 0 0 3.22.84 6.33 6.33 0 0 0 2.42-.44 3.91 3.91 0 0 0 1.64-1.23 3 3 0 0 0 .6-1.81 2.57 2.57 0 0 0-.76-1.9 4.88 4.88 0 0 0-2.31-1.06Zm9.1 4.17a2.15 2.15 0 0 1-.45 0 1.81 1.81 0 0 1-.58-.1.83.83 0 0 1-.42-.37 1.6 1.6 0 0 1-.16-.8V21h2.15v-2h-2.15v-2.61h-2.57V19H9.64v2h1.55v6.07a2.93 2.93 0 0 0 .44 1.7 2.66 2.66 0 0 0 1.23 1 4.19 4.19 0 0 0 1.74.29 4.61 4.61 0 0 0 .92-.1 6.09 6.09 0 0 0 .59-.15l-.43-2Zm9.11-8.29a5.28 5.28 0 0 0-2.77-.71 5.26 5.26 0 0 0-2.77.71 4.75 4.75 0 0 0-1.82 2 6.48 6.48 0 0 0-.64 3 6.45 6.45 0 0 0 .64 3 4.73 4.73 0 0 0 1.82 2 5.26 5.26 0 0 0 2.77.71 5.28 5.28 0 0 0 2.77-.71 4.7 4.7 0 0 0 1.81-2 6.45 6.45 0 0 0 .64-3 6.48 6.48 0 0 0-.64-3 4.73 4.73 0 0 0-1.81-2ZM24 26.3a2.85 2.85 0 0 1-.87 1.29 2.2 2.2 0 0 1-1.45.48 2.24 2.24 0 0 1-1.47-.48 2.94 2.94 0 0 1-.88-1.29 5.4 5.4 0 0 1-.28-1.8 5.48 5.48 0 0 1 .28-1.82 3 3 0 0 1 .88-1.3 2.24 2.24 0 0 1 1.47-.48 2.2 2.2 0 0 1 1.45.48 2.93 2.93 0 0 1 .87 1.3 5.47 5.47 0 0 1 .29 1.82 5.39 5.39 0 0 1-.29 1.8Zm9.41-7.45a2.84 2.84 0 0 0-1.67.51 2.74 2.74 0 0 0-1 1.46h-.14V19h-2.49v10.9h2.57v-6.4a2.4 2.4 0 0 1 .32-1.23 2.2 2.2 0 0 1 .88-.83 2.61 2.61 0 0 1 1.26-.3 5.22 5.22 0 0 1 .67 0 2.49 2.49 0 0 1 .52.11v-2.33l-.44-.05a4.19 4.19 0 0 0-.48-.02Zm8.98.15-2.52 8.23h-.11L37.24 19h-2.73l4 11.13-.22.59a2.14 2.14 0 0 1-.57.89 1.34 1.34 0 0 1-.78.27 3.56 3.56 0 0 1-1-.16l-.6 2a3.62 3.62 0 0 0 .71.18 4.92 4.92 0 0 0 .95.1 4.22 4.22 0 0 0 1.74-.33 3.48 3.48 0 0 0 1.23-1 5.24 5.24 0 0 0 .81-1.48L45.13 19Z" style="fill:#fff"/></svg>